<svg width="69" height="48" viewBox="0 0 69 48" fill="none" xmlns="http://www.w3.org/2000/svg">
<g id="&#240;&#159;&#166;&#134; icon &#34;youtube&#34;">
<path id="Vector" d="M27.0934 32.8535L45.5467 23.3068L27.0934 13.6802V32.8535Z" fill="white"/>
<path id="Vector_2" opacity="0.12" d="M27.0934 13.6802L43.2801 24.4802L45.5467 23.3068L27.0934 13.6802Z" fill="#420000"/>
<path id="Vector_3" d="M67.547 10.3467C67.547 10.3467 66.8805 5.65333 64.828 3.57333C62.2424 0.853333 59.3368 0.853333 57.9774 0.693333C48.4611 0 34.1467 0 34.1467 0H34.12C34.12 0 19.8056 0 10.236 0.693333C8.90319 0.853333 5.99766 0.853333 3.38534 3.57333C1.35947 5.65333 0.693063 10.3467 0.693063 10.3467C0.693063 10.3467 0 15.8933 0 21.4133V26.5867C0 32.1067 0.693063 37.6267 0.693063 37.6267C0.693063 37.6267 1.35947 42.32 3.412 44.4C5.99766 47.12 9.40966 47.04 10.9291 47.3067C16.3936 47.84 34.12 48 34.12 48C34.12 48 48.4611 47.9733 58.004 47.28C59.3368 47.12 62.2424 47.12 64.8547 44.4C66.9072 42.32 67.5736 37.6267 67.5736 37.6267C67.5736 37.6267 68.2667 32.1067 68.2667 26.5867V21.4133C68.24 15.8933 67.547 10.3467 67.547 10.3467ZM27.0828 32.8533V13.68L45.5289 23.3067L27.0828 32.8533Z" fill="url(#paint0_linear_106_168)"/>
</g>
<defs>
<linearGradient id="paint0_linear_106_168" x1="8734.72" y1="8.64e-05" x2="8734.72" y2="8642.61" gradientUnits="userSpaceOnUse">
<stop stop-color="#E52D27"/>
<stop offset="1" stop-color="#BF171D"/>
</linearGradient>
</defs>
</svg>
