<svg width="56" height="56" viewBox="0 0 56 56" fill="none" xmlns="http://www.w3.org/2000/svg">
<g id="&#240;&#159;&#166;&#134; icon &#34;spotify&#34;">
<g id="Group">
<path id="Vector" d="M28 0C12.5355 0 0 12.5355 0 28C0 43.4645 12.5355 56 28 56C43.4645 56 56 43.4645 56 28C56 12.5374 43.4645 0.00191062 28 0Z" fill="#2EBD59"/>
<path id="Vector_2" d="M40.8412 40.3828C40.3387 41.2082 39.263 41.4662 38.4415 40.9637C31.8671 36.9457 23.5903 36.0381 13.8443 38.264C12.9043 38.4799 11.9681 37.8914 11.7541 36.9514C11.5382 36.0114 12.1247 35.0752 13.0667 34.8612C23.7317 32.4252 32.8816 33.4741 40.2623 37.9831C41.0839 38.4894 41.3456 39.5613 40.8412 40.3828Z" fill="black"/>
<path id="Vector_3" d="M44.267 32.7614C43.6346 33.7893 42.2895 34.1103 41.2635 33.4798C33.7396 28.8542 22.2644 27.5149 13.3629 30.2165C12.2089 30.5661 10.9899 29.9146 10.6384 28.7625C10.2906 27.6085 10.9422 26.3914 12.0943 26.0399C22.2625 22.9542 34.905 24.4483 43.5467 29.7598C44.5746 30.3922 44.8994 31.7354 44.267 32.7614Z" fill="black"/>
<path id="Vector_4" d="M44.5612 24.8206C35.5355 19.4614 20.648 18.9684 12.0312 21.5821C10.6479 22.0025 9.18437 21.221 8.76594 19.8378C8.34752 18.4545 9.12705 16.9909 10.5122 16.5706C20.4035 13.569 36.8443 14.148 47.2342 20.3154C48.478 21.0548 48.8869 22.6616 48.1494 23.9035C47.4138 25.1493 45.8031 25.56 44.5612 24.8206Z" fill="black"/>
</g>
</g>
</svg>
